<!DOCTYPE svg PUBLIC "-//W3C//DTD SVG 20010904//EN" "http://www.w3.org/TR/2001/REC-SVG-20010904/DTD/svg10.dtd">
<svg version="1.0" xmlns="http://www.w3.org/2000/svg" width="200px" height="200px" viewBox="0 0 2000 2000" preserveAspectRatio="xMidYMid meet">
<g id="layer101" fill="#000000" stroke="none">
 <path d="M793 1879 c3 -12 21 -105 39 -205 l33 -184 42 0 c24 0 43 3 43 8 0 4 16 90 35 192 19 102 35 191 35 198 0 7 -14 12 -35 12 -31 0 -35 -3 -41 -35 -6 -32 -9 -35 -40 -35 -32 0 -34 2 -34 35 0 34 -1 35 -41 35 -37 0 -41 -2 -36 -21z m131 -156 c-13 -105 -20 -115 -28 -39 -5 38 -10 75 -13 83 -3 9 4 13 22 13 26 0 26 0 19 -57z"/>
 <path d="M1050 1695 l0 -205 59 0 c114 0 146 34 139 151 -5 86 -27 120 -86 133 l-42 10 0 58 0 58 -35 0 -35 0 0 -205z m119 -1 c26 -57 4 -154 -35 -154 -11 0 -14 19 -14 94 0 87 1 94 19 89 10 -2 24 -16 30 -29z"/>
 <path d="M877 1292 c-13 -20 -52 -88 -88 -149 l-64 -112 -178 -3 -179 -3 -89 -153 -89 -154 89 -151 c49 -84 131 -223 182 -309 l92 -158 183 0 182 0 85 148 84 147 180 3 179 2 79 138 c43 75 86 148 96 162 10 14 56 93 103 174 l86 148 -88 154 -87 153 -367 0 -368 1 -23 -38z"/>
 </g>
<g id="layer102" fill="#1c9e75" stroke="none">
 <path d="M877 1292 c-13 -20 -52 -88 -88 -149 l-64 -112 -178 -3 -179 -3 -89 -153 -89 -154 89 -151 c49 -84 131 -223 182 -309 l92 -158 183 0 182 0 85 148 84 147 180 3 179 2 44 78 c24 42 68 118 98 167 30 50 92 155 138 234 l84 143 -88 154 -87 153 -367 0 -368 1 -23 -38z"/>
 </g>
<g id="layer103" fill="#51af30" stroke="none">
 <path d="M877 1293 c-13 -21 -52 -89 -88 -150 l-64 -112 -178 -3 -179 -3 -89 -153 -89 -154 89 -151 c49 -84 131 -223 182 -309 l92 -158 183 0 182 0 87 151 87 151 -91 157 -90 156 174 5 174 5 86 149 86 150 -73 125 c-39 69 -78 138 -86 153 l-13 28 -180 0 -179 0 -23 -37z"/>
 </g>
<g id="layer104" fill="#4aab56" stroke="none">
 <path d="M877 1293 c-13 -21 -52 -89 -88 -150 l-64 -112 -178 -3 -179 -3 -89 -153 -89 -154 88 -151 88 -152 180 -3 180 -2 79 137 c43 76 85 146 93 156 13 15 36 17 187 17 l171 0 87 152 87 152 -72 125 c-39 69 -78 138 -86 153 l-13 28 -180 0 -179 0 -23 -37z"/>
 </g>
<g id="layer105" fill="#1899a3" stroke="none">
 <path d="M877 1293 c-13 -21 -52 -89 -88 -150 l-64 -112 -178 -3 -179 -3 -89 -153 -89 -154 88 -151 88 -152 179 0 179 0 87 150 87 150 180 5 181 5 86 149 86 150 -73 125 c-39 69 -78 138 -86 153 l-13 28 -180 0 -179 0 -23 -37z"/>
 </g>
<g id="layer106" fill="#088bed" stroke="none">
 <path d="M877 1293 c-13 -21 -52 -89 -88 -150 l-64 -112 -178 -3 -179 -3 -89 -153 -89 -154 88 -151 88 -152 179 0 179 0 88 152 88 152 -85 147 c-47 81 -85 149 -85 151 0 1 81 3 180 3 99 0 180 -2 180 -3 0 -2 -38 -70 -85 -150 l-84 -147 164 0 c93 0 166 4 170 9 3 6 -31 73 -75 150 l-81 140 80 139 c45 77 81 147 81 156 0 14 -20 16 -180 16 l-180 0 -23 -37z"/>
 </g>
<g id="layer107" fill="#4da9a5" stroke="none">
 <path d="M476 563 l-85 -148 161 -3 c89 -1 165 1 170 6 9 9 168 281 168 288 0 2 -74 4 -164 4 l-165 0 -85 -147z"/>
 </g>

</svg>