<!DOCTYPE svg PUBLIC "-//W3C//DTD SVG 20010904//EN" "http://www.w3.org/TR/2001/REC-SVG-20010904/DTD/svg10.dtd">
<svg version="1.0" xmlns="http://www.w3.org/2000/svg" width="508px" height="200px" viewBox="0 0 5080 2000" preserveAspectRatio="xMidYMid meet">
<g id="layer101" fill="#2e77bd" stroke="none">
 <path d="M0 1000 l0 -1000 2540 0 2540 0 0 1000 0 1000 -2540 0 -2540 0 0 -1000z"/>
 </g>
<g id="layer102" fill="#fafcfd" stroke="none">
 <path d="M0 1000 l0 -1000 2540 0 2540 0 0 1000 0 1000 -2540 0 -2540 0 0 -1000z m4520 830 l0 -80 -30 0 c-28 0 -30 -3 -30 -36 0 -28 -3 -35 -17 -32 -12 2 -19 14 -21 36 -3 28 -7 32 -33 32 l-29 0 0 73 c0 41 3 77 7 80 3 4 39 7 80 7 l73 0 0 -80z m-20 -209 c0 -25 6 -31 36 -41 30 -10 38 -9 55 6 19 17 21 17 61 -24 41 -40 41 -42 24 -61 -15 -17 -16 -25 -6 -55 10 -31 16 -36 41 -36 l30 0 -3 -57 c-3 -54 -5 -58 -29 -61 -41 -5 -65 -72 -33 -90 21 -12 7 -39 -38 -77 -32 -27 -32 -27 -48 -7 -15 18 -19 18 -52 5 -28 -11 -38 -21 -40 -41 -3 -26 -6 -27 -58 -27 -52 0 -55 1 -60 29 -3 19 -14 32 -35 41 -26 11 -33 10 -52 -7 l-21 -20 -42 42 -42 42 20 21 c17 20 18 25 6 55 -10 23 -20 32 -38 32 -26 0 -36 16 -36 60 0 44 10 60 36 60 18 0 28 9 38 33 12 29 11 34 -6 53 -19 21 -19 22 8 53 37 44 64 58 76 37 19 -35 88 -7 88 36 0 28 1 28 60 28 60 0 60 0 60 -29z m-400 -265 c0 -10 -14 -16 -42 -18 l-43 -3 -3 -195 -2 -194 30 -24 c24 -19 30 -31 30 -62 0 -68 -79 -105 -128 -60 -43 41 -38 93 13 126 l25 16 0 214 0 214 60 0 c46 0 60 -3 60 -14z m810 -197 l0 -211 30 -28 c38 -36 40 -81 5 -115 -49 -50 -135 -15 -135 55 0 29 29 70 50 70 6 0 10 75 10 205 l0 205 -40 0 c-29 0 -40 4 -40 15 0 12 13 15 60 15 l60 0 0 -211z m-450 -175 c0 -27 7 -43 30 -64 75 -70 -14 -183 -97 -125 -42 30 -38 100 9 133 11 8 18 25 18 46 0 35 6 46 27 46 8 0 13 -13 13 -36z"/>
 <path d="M4400 1830 l0 -51 43 3 42 3 0 45 0 45 -42 3 -43 3 0 -51z"/>
 <path d="M4378 1556 c-57 -20 -85 -42 -116 -88 -23 -36 -27 -51 -27 -118 0 -67 4 -82 27 -118 90 -135 295 -125 368 18 46 91 33 176 -39 250 -64 66 -133 84 -213 56z m117 -73 c1 -36 21 -50 43 -29 18 16 20 15 37 -10 17 -26 17 -28 -4 -43 -26 -20 -19 -51 11 -51 15 0 19 -6 16 -27 -2 -24 -7 -28 -29 -25 -31 3 -46 -22 -27 -45 10 -13 8 -19 -12 -35 -24 -20 -24 -20 -34 1 -13 29 -42 27 -50 -4 -6 -25 -20 -30 -50 -19 -11 4 -14 13 -10 30 7 28 -18 43 -41 24 -12 -10 -18 -10 -30 0 -20 16 -19 40 2 55 21 16 10 45 -17 45 -12 0 -20 7 -20 18 0 30 16 45 39 37 26 -8 39 18 20 41 -11 14 -10 19 11 36 24 19 24 19 40 -2 19 -25 50 -18 50 12 0 15 6 19 28 16 20 -2 27 -8 27 -25z"/>
 <path d="M4413 1420 c-72 -29 -48 -140 30 -140 38 0 62 21 72 62 6 22 1 33 -23 58 -32 31 -43 34 -79 20z m52 -70 c0 -33 -40 -41 -50 -11 -9 28 2 43 28 39 16 -2 22 -10 22 -28z"/>
 <path d="M3968 899 c-25 -14 -23 -65 2 -79 51 -27 95 36 50 72 -25 21 -29 21 -52 7z"/>
 <path d="M4860 890 c-11 -11 -20 -23 -20 -28 0 -17 32 -52 49 -52 20 0 51 30 51 48 0 15 -36 52 -50 52 -5 0 -19 -9 -30 -20z"/>
 <path d="M4418 899 c-10 -6 -18 -22 -18 -37 0 -50 42 -69 73 -34 23 25 21 48 -5 66 -26 19 -27 19 -50 5z"/>
 </g>

</svg>