<!DOCTYPE svg PUBLIC "-//W3C//DTD SVG 20010904//EN" "http://www.w3.org/TR/2001/REC-SVG-20010904/DTD/svg10.dtd">
<svg version="1.0" xmlns="http://www.w3.org/2000/svg" width="508px" height="200px" viewBox="0 0 5080 2000" preserveAspectRatio="xMidYMid meet">
<g id="layer101" fill="#347abd" stroke="none">
 <path d="M0 1000 l0 -1000 2540 0 2540 0 0 1000 0 1000 -2540 0 -2540 0 0 -1000z"/>
 </g>
<g id="layer102" fill="#ffffff" stroke="none">
 <path d="M0 1000 l0 -1000 2540 0 2540 0 0 1000 0 1000 -2540 0 -2540 0 0 -1000z m4621 894 c89 -27 150 -63 214 -128 99 -101 145 -211 145 -351 0 -167 -86 -320 -232 -415 -82 -54 -164 -73 -285 -68 -89 3 -106 7 -177 41 -132 63 -235 187 -267 322 -6 28 -13 56 -16 64 -2 9 -22 -4 -58 -38 -29 -28 -62 -51 -73 -51 -28 0 -55 35 -49 62 8 31 219 238 242 238 20 0 232 -204 241 -232 8 -26 -22 -68 -47 -68 -12 0 -48 26 -83 60 -35 33 -65 60 -68 60 -3 0 -1 -21 3 -47 22 -117 106 -224 219 -277 59 -28 74 -31 165 -31 87 0 107 3 156 26 302 142 303 571 3 711 -117 54 -248 48 -363 -19 -35 -20 -48 -23 -66 -15 -28 13 -40 45 -26 71 13 23 99 67 168 86 68 19 189 18 254 -1z m11 -331 c29 -26 21 -51 -37 -112 l-55 -58 0 -113 c0 -92 -3 -117 -17 -132 -20 -22 -41 -23 -65 -1 -16 14 -18 33 -18 152 l0 136 72 72 c40 40 79 73 87 73 8 0 23 -7 33 -17z"/>
 </g>

</svg>