<!DOCTYPE svg PUBLIC "-//W3C//DTD SVG 20010904//EN" "http://www.w3.org/TR/2001/REC-SVG-20010904/DTD/svg10.dtd">
<svg version="1.0" xmlns="http://www.w3.org/2000/svg" width="508px" height="200px" viewBox="0 0 5080 2000" preserveAspectRatio="xMidYMid meet">
<g id="layer101" fill="#2e77bd" stroke="none">
 <path d="M0 1000 l0 -1000 2540 0 2540 0 0 1000 0 1000 -2540 0 -2540 0 0 -1000z"/>
 </g>
<g id="layer102" fill="#ffffff" stroke="none">
 <path d="M0 1000 l0 -1000 2540 0 2540 0 0 1000 0 1000 -2540 0 -2540 0 0 -1000z m4819 852 c14 -10 37 -39 51 -63 25 -44 25 -46 25 -294 0 -244 -1 -251 -24 -299 -43 -88 -139 -108 -240 -51 -23 14 -45 25 -47 25 -2 0 -4 -76 -4 -170 l0 -170 -105 0 -105 0 0 515 0 515 105 0 105 0 0 -25 0 -26 28 21 c69 51 159 61 211 22z"/>
 <path d="M4593 1733 c-10 -3 -13 -61 -13 -238 0 -221 1 -235 19 -245 31 -16 69 -12 81 9 14 28 13 423 -2 456 -9 19 -18 25 -42 24 -17 0 -37 -3 -43 -6z"/>
 </g>

</svg>