<!DOCTYPE svg PUBLIC "-//W3C//DTD SVG 20010904//EN" "http://www.w3.org/TR/2001/REC-SVG-20010904/DTD/svg10.dtd">
<svg version="1.0" xmlns="http://www.w3.org/2000/svg" width="508px" height="200px" viewBox="0 0 5080 2000" preserveAspectRatio="xMidYMid meet">
<g id="layer101" fill="#2f5991" stroke="none">
 <path d="M0 1000 l0 -1000 2540 0 2540 0 0 1000 0 1000 -2540 0 -2540 0 0 -1000z"/>
 </g>
<g id="layer102" fill="#3869ac" stroke="none">
 <path d="M0 1000 l0 -1000 2540 0 2540 0 0 1000 0 1000 -2540 0 -2540 0 0 -1000z m4416 692 c39 -26 33 -87 -11 -98 -54 -13 -88 59 -43 90 25 18 37 19 54 8z m172 -104 c2 -19 -2 -28 -18 -33 -37 -12 -64 27 -38 53 21 21 53 10 56 -20z m-336 -59 c11 -6 26 -26 34 -45 18 -42 4 -80 -37 -103 -51 -28 -119 13 -119 72 1 65 66 106 122 76z m483 -114 c18 -17 25 -35 25 -64 0 -65 -54 -102 -115 -77 -62 26 -74 89 -26 137 38 37 82 39 116 4z m-231 -57 c22 -31 20 -64 -4 -88 -58 -58 -149 31 -93 92 23 26 78 24 97 -4z m-184 -114 c13 -32 13 -30 -6 -48 -40 -40 -101 3 -75 53 17 32 68 29 81 -5z m199 -108 c9 -10 9 -16 1 -21 -17 -11 -40 3 -34 20 8 19 18 19 33 1z"/>
 </g>
<g id="layer103" fill="#ffffff" stroke="none">
 <path d="M0 1000 l0 -1000 2540 0 2540 0 0 1000 0 1000 -2540 0 -2540 0 0 -1000z m4537 899 c20 -17 12 -52 -14 -64 -13 -5 -23 -15 -23 -22 0 -7 0 -16 -1 -20 0 -3 25 -14 55 -24 30 -9 76 -29 101 -43 53 -32 69 -27 61 19 -7 33 11 65 36 65 29 0 118 -92 118 -122 0 -21 -34 -38 -66 -32 -43 8 -54 -14 -26 -53 19 -29 46 -96 56 -145 8 -36 18 -35 56 2 54 53 72 33 68 -77 -3 -77 -3 -78 -30 -81 -22 -3 -30 2 -40 22 -12 27 -46 36 -52 14 -13 -54 -42 -128 -59 -152 -27 -38 -14 -59 39 -60 33 -1 40 -5 42 -23 7 -49 -79 -130 -125 -118 -23 5 -25 9 -20 42 10 60 -5 66 -77 28 -35 -18 -82 -36 -105 -40 -33 -5 -41 -11 -41 -29 0 -12 9 -25 22 -31 27 -12 35 -40 18 -60 -13 -15 -122 -21 -154 -9 -26 10 -20 59 9 72 45 21 31 45 -36 65 -33 10 -79 29 -101 43 -48 31 -71 20 -61 -28 5 -23 2 -34 -12 -45 -27 -19 -31 -18 -85 33 -52 49 -63 81 -35 104 9 7 25 10 41 6 14 -4 32 -2 39 4 11 9 8 20 -15 57 -16 25 -35 70 -41 100 -7 30 -19 57 -26 60 -7 3 -26 -9 -43 -27 -24 -26 -32 -29 -49 -21 -36 20 -40 143 -6 171 20 17 48 8 60 -18 6 -13 19 -22 31 -22 17 0 23 10 33 54 6 29 25 75 42 101 35 55 27 78 -22 68 -31 -6 -59 10 -59 34 0 24 91 113 116 113 29 0 49 -33 35 -58 -6 -12 -5 -23 4 -35 12 -17 16 -16 60 12 26 17 72 36 101 42 46 10 54 16 54 34 0 14 -8 25 -20 28 -43 11 -36 65 11 79 33 10 118 1 136 -13z"/>
 </g>

</svg>