<!DOCTYPE svg PUBLIC "-//W3C//DTD SVG 20010904//EN" "http://www.w3.org/TR/2001/REC-SVG-20010904/DTD/svg10.dtd">
<svg version="1.0" xmlns="http://www.w3.org/2000/svg" width="508px" height="200px" viewBox="0 0 5080 2000" preserveAspectRatio="xMidYMid meet">
<g id="layer101" fill="#3078bc" stroke="none">
 <path d="M0 1000 l0 -1000 2540 0 2540 0 0 1000 0 1000 -2540 0 -2540 0 0 -1000z"/>
 </g>
<g id="layer102" fill="#ffffff" stroke="none">
 <path d="M0 1000 l0 -1000 2540 0 2540 0 0 1000 0 1000 -2540 0 -2540 0 0 -1000z m3993 827 c63 -27 132 -102 199 -217 21 -36 118 -132 118 -117 0 2 -8 28 -18 58 -30 86 -33 116 -16 134 28 28 51 18 82 -37 33 -60 122 -181 128 -175 2 2 -7 30 -20 63 -13 32 -27 76 -31 96 -6 32 -4 38 19 53 32 22 68 14 90 -20 17 -26 36 -33 36 -13 0 19 32 48 52 48 10 0 30 -11 44 -25 l25 -26 30 26 c35 29 58 31 99 10 42 -22 130 -138 130 -171 0 -4 -26 18 -58 48 -58 56 -108 88 -137 88 -41 0 4 -123 71 -192 19 -21 37 -38 40 -38 15 0 -2 36 -42 91 -44 59 -45 63 -28 76 10 7 24 13 31 13 31 0 99 -145 88 -187 -3 -13 -16 -30 -29 -38 -30 -20 -59 -9 -109 41 -47 47 -74 98 -83 155 -7 41 -43 89 -67 89 -18 0 3 -84 43 -168 22 -46 37 -88 34 -93 -10 -17 -45 -9 -68 16 -13 14 -33 51 -45 83 -11 32 -36 76 -55 98 l-35 39 8 -30 c5 -16 23 -65 42 -109 32 -76 32 -79 14 -92 -34 -25 -57 -15 -126 56 -65 67 -68 69 -53 33 9 -21 25 -55 36 -77 16 -31 17 -40 6 -47 -20 -13 -48 0 -107 50 -48 40 -54 43 -47 21 52 -180 59 -266 27 -336 -23 -50 -63 -80 -129 -95 -42 -10 -58 -9 -103 5 -154 51 -310 223 -354 391 -32 123 -13 230 47 264 19 11 28 24 28 41 1 39 37 109 62 120 34 13 94 12 131 -3z m765 -483 c24 -38 22 -54 -8 -54 -32 0 -50 11 -66 42 -18 35 -11 48 24 48 20 -1 33 -10 50 -36z"/>
 <path d="M3892 1788 c-9 -12 -16 -47 -13 -75 1 -8 15 -13 34 -13 37 0 123 -22 156 -39 41 -22 34 -3 -19 53 -70 74 -133 103 -158 74z"/>
 <path d="M3886 1623 c10 -72 51 -195 77 -234 12 -19 37 -43 54 -54 39 -24 41 -35 8 -35 -37 0 -97 33 -132 74 -36 40 -72 130 -80 200 -6 44 -7 47 -15 25 -23 -58 20 -225 89 -348 43 -78 135 -173 188 -195 61 -26 119 -21 157 13 28 25 32 35 36 92 4 71 -18 173 -69 313 -28 79 -33 86 -85 120 -71 47 -145 76 -195 76 l-40 0 7 -47z"/>
 </g>

</svg>