<!DOCTYPE svg PUBLIC "-//W3C//DTD SVG 20010904//EN" "http://www.w3.org/TR/2001/REC-SVG-20010904/DTD/svg10.dtd">
<svg version="1.0" xmlns="http://www.w3.org/2000/svg" width="508px" height="200px" viewBox="0 0 5080 2000" preserveAspectRatio="xMidYMid meet">
<g id="layer101" fill="#2e77bd" stroke="none">
 <path d="M0 1000 l0 -1000 2540 0 2540 0 0 1000 0 1000 -2540 0 -2540 0 0 -1000z"/>
 </g>
<g id="layer102" fill="#ffffff" stroke="none">
 <path d="M0 1000 l0 -1000 2540 0 2540 0 0 1000 0 1000 -2540 0 -2540 0 0 -1000z m4946 864 c-9 -76 -41 -166 -80 -228 -43 -67 -132 -148 -201 -181 l-54 -27 -48 19 c-66 25 -164 23 -225 -5 l-48 -21 -70 35 c-158 79 -280 269 -280 434 l0 30 506 0 507 0 -7 -56z m-370 -468 c140 -65 207 -221 159 -367 -27 -79 -112 -162 -190 -185 -110 -31 -222 -4 -299 74 -57 56 -79 106 -84 193 -4 66 -1 84 20 130 35 77 70 113 140 148 81 41 176 43 254 7z"/>
 </g>

</svg>