<!DOCTYPE svg PUBLIC "-//W3C//DTD SVG 20010904//EN" "http://www.w3.org/TR/2001/REC-SVG-20010904/DTD/svg10.dtd">
<svg version="1.0" xmlns="http://www.w3.org/2000/svg" width="508px" height="200px" viewBox="0 0 5080 2000" preserveAspectRatio="xMidYMid meet">
<g id="layer101" fill="#4177b8" stroke="none">
 <path d="M0 1000 l0 -1000 2540 0 2540 0 0 1000 0 1000 -2540 0 -2540 0 0 -1000z"/>
 </g>
<g id="layer102" fill="#ffffff" stroke="none">
 <path d="M0 1000 l0 -1000 2540 0 2540 0 0 1000 0 1000 -2540 0 -2540 0 0 -1000z m4475 896 c57 -26 128 -100 156 -161 37 -80 18 -176 -48 -236 -38 -36 -75 -53 -209 -100 -161 -55 -216 -93 -249 -171 -32 -78 -11 -184 51 -257 l36 -41 -146 0 -146 0 0 495 0 495 253 0 c243 0 254 -1 302 -24z m234 -44 c65 -38 141 -119 178 -188 181 -341 -57 -734 -444 -734 -44 0 -89 6 -111 16 -119 49 -182 204 -116 284 34 40 74 60 207 103 59 20 130 50 158 68 169 108 196 288 67 451 -31 39 -31 40 -7 33 13 -4 44 -19 68 -33z"/>
 </g>

</svg>